<svg xmlns="http://www.w3.org/2000/svg" viewBox="0 0 48 48" fill="none">
  <defs>
    <linearGradient id="shield-stroke-icon" x1="0%" y1="0%" x2="100%" y2="100%">
      <stop offset="0%" stop-color="#67e8f9"/>
      <stop offset="100%" stop-color="#22d3ee"/>
    </linearGradient>
    <linearGradient id="shield-fill-icon" x1="0%" y1="0%" x2="0%" y2="100%">
      <stop offset="0%" stop-color="#22d3ee" stop-opacity="0.12"/>
      <stop offset="100%" stop-color="#06b6d4" stop-opacity="0.03"/>
    </linearGradient>
    <clipPath id="shield-clip-icon">
      <path d="M24 4 L42 10 L42 24 C42 34 33 42 24 44 C15 42 6 34 6 24 L6 10 Z"/>
    </clipPath>
  </defs>

  <!-- Background -->
  <rect x="2" y="2" width="44" height="44" rx="10" fill="#0a1628"/>

  <!-- Shield outline -->
  <path d="M24 4 L42 10 L42 24 C42 34 33 42 24 44 C15 42 6 34 6 24 L6 10 Z"
        fill="none" stroke="url(#shield-stroke-icon)" stroke-width="2.5"/>

  <!-- Inner shield glow -->
  <path d="M24 8 L38 12.5 L38 24 C38 32 31 38 24 40 C17 38 10 32 10 24 L10 12.5 Z"
        fill="url(#shield-fill-icon)"/>

  <!-- Matrix data streams -->
  <g clip-path="url(#shield-clip-icon)">
    <!-- Column 1 -->
    <rect x="10" y="14" width="2.5" height="8" rx="1" fill="#22d3ee" opacity="0.35"/>
    <rect x="10" y="24" width="2.5" height="7" rx="1" fill="#22d3ee" opacity="0.55"/>
    <rect x="10" y="33" width="2.5" height="5" rx="1" fill="#22d3ee" opacity="0.3"/>

    <!-- Column 2 -->
    <rect x="15" y="11" width="2.5" height="6" rx="1" fill="#22d3ee" opacity="0.4"/>
    <rect x="15" y="19" width="2.5" height="11" rx="1" fill="#22d3ee" opacity="0.65"/>
    <rect x="15" y="32" width="2.5" height="7" rx="1" fill="#22d3ee" opacity="0.4"/>

    <!-- Column 3 (center) -->
    <rect x="20" y="9" width="3" height="7" rx="1" fill="#22d3ee" opacity="0.45"/>
    <rect x="20" y="18" width="3" height="13" rx="1.5" fill="#67e8f9"/>
    <rect x="20" y="33" width="3" height="8" rx="1" fill="#22d3ee" opacity="0.5"/>

    <!-- Column 4 -->
    <rect x="26" y="9" width="2.5" height="5" rx="1" fill="#22d3ee" opacity="0.35"/>
    <rect x="26" y="16" width="2.5" height="10" rx="1" fill="#22d3ee" opacity="0.6"/>
    <rect x="26" y="28" width="2.5" height="9" rx="1" fill="#22d3ee" opacity="0.45"/>

    <!-- Column 5 -->
    <rect x="31" y="11" width="2.5" height="8" rx="1" fill="#22d3ee" opacity="0.45"/>
    <rect x="31" y="21" width="2.5" height="7" rx="1" fill="#22d3ee" opacity="0.55"/>
    <rect x="31" y="30" width="2.5" height="6" rx="1" fill="#22d3ee" opacity="0.35"/>

    <!-- Column 6 -->
    <rect x="36" y="13" width="2.5" height="6" rx="1" fill="#22d3ee" opacity="0.3"/>
    <rect x="36" y="21" width="2.5" height="8" rx="1" fill="#22d3ee" opacity="0.45"/>
    <rect x="36" y="31" width="2.5" height="4" rx="1" fill="#22d3ee" opacity="0.25"/>
  </g>
</svg>
